<svg id="Layer_1" data-name="Layer 1" xmlns="http://www.w3.org/2000/svg" viewBox="0 0 32 32"><defs><style>.cls-1{fill:#009286;}</style></defs><title>verzekeren_algemeen</title><path class="cls-1" d="M22.732,21.183c-.144-.745-.27-1.686-1.108-1.942a17.757,17.757,0,0,0-3.478-.694c-.309-.045-.8-.091-.928-.293-.1-.153-.108-.268-.108-.647,0-.519-.028-.716.033-.743.683-.3,1.028-.618,1.476-2.012.922-1.914.675-4.384-.21-5.458A3.491,3.491,0,0,0,15.536,8H15.5a3.567,3.567,0,0,0-2.912,1.394c-.885,1.074-1.132,3.544-.21,5.458.448,1.394.793,1.714,1.476,2.012.061.027.033.224.033.743,0,.379-.009.494-.108.647-.129.2-.619.248-.928.293a17.757,17.757,0,0,0-3.478.694c-.838.256-.964,1.2-1.108,1.942A14.641,14.641,0,0,0,8,23.954V25H23V23.954A14.644,14.644,0,0,0,22.732,21.183Z"/></svg>