<?xml version="1.0" encoding="UTF-8"?>
<svg width="72" height="72px" viewBox="0 0 14 20" version="1.1" xmlns="http://www.w3.org/2000/svg" xmlns:xlink="http://www.w3.org/1999/xlink">
    <!-- Generator: sketchtool 55.2 (78181) - https://sketchapp.com -->
    <title>B5D81FB3-C37E-4E47-9E5E-374F0144DB49sy-</title>
    <desc>Created with sketchtool.</desc>
    <g id="Sketches" stroke="none" stroke-width="1" fill="none" fill-rule="evenodd">
        <g id="Documenten-inzien---Dossier-kiezen" transform="translate(-105.000000, -334.000000)" fill="#00716B">
            <g id="Menus-/-Side---Desktop-Copy-2" transform="translate(84.000000, 320.000000)">
                <g id="Assets-/-Menus-/-Side-/-States-/-Default">
                    <g id="Icons-/-System-/-Notification" transform="translate(16.000000, 12.000000)">
                        <path d="M14.1715698,4.00000021 L7.00000001,4.00000021 L7.00000001,20.0000002 L17,20.0000002 L17,6.82842012 L14.1715698,4.00000021 Z M15,2 L19,6 L19,20 C19,21.1045705 18.1045838,22 17,22 L7,22 C5.8954468,22 5,21.1045705 5,20 L5,4 C5,2.8954302 5.8954468,2 7,2 L15,2 Z M13,6.99999802 C13.5522766,6.99999802 14,7.44770852 14,7.99999802 C14,8.55228753 13.5522766,8.99999802 13,8.99999802 L10,8.99999802 C9.44772342,8.99999802 9.00000002,8.55228803 9.00000002,7.99999802 C9.00000002,7.44770802 9.44772342,6.99999802 10,6.99999802 L13,6.99999802 Z M14,11.0000004 C14.5522766,11.0000004 15,11.4477104 15,12.0000004 C15,12.5522904 14.5522766,13.0000004 14,13.0000004 L10,13.0000004 C9.44772342,13.0000004 9.00000002,12.5522904 9.00000002,12.0000004 C9.00000002,11.4477104 9.44772342,11.0000004 10,11.0000004 L14,11.0000004 Z M14,15.0000005 C14.5522766,15.0000005 15,15.4477105 15,16.0000005 C15,16.5522905 14.5522766,17.0000005 14,17.0000005 L10,17.0000005 C9.44772342,17.0000005 9.00000002,16.5522905 9.00000002,16.0000005 C9.00000002,15.4477105 9.44772342,15.0000005 10,15.0000005 L14,15.0000005 Z" id="icons-/-system-/-icons_form-document"></path>
                    </g>
                </g>
            </g>
        </g>
    </g>
</svg>
